# xmcd CD database file
#
# Track frame offsets:
#	150
#	22015
#	40460
#
# Disc length: 828 seconds
#
# Revision: 9
# Processed by: cddbd v1.5PL3 Copyright (c) Steve Scherf et al.
# Submitted via: CDex 1.40Beta9
#
DISCID=21033a03
DTITLE=???? - ?????????!
DYEAR=2001
DGENRE=Jazz
TTITLE0=?????????!
TTITLE1=BABY CRY
TTITLE2=?????????! (instrumental)
EXTD=YEAR: 2001 ID3G: 8
EXTT0=
EXTT1=
EXTT2=
PLAYORDER=
